<svg xmlns="http://www.w3.org/2000/svg" xmlns:xlink="http://www.w3.org/1999/xlink" width="132" height="132" viewBox="0 0 132 132">
    <defs>
        <path id="a" d="M0 .1h12.224v24.068H0z"/>
        <path id="c" d="M0 .081h10.387v19.653H0z"/>
    </defs>
    <g fill="none" fill-rule="evenodd" transform="translate(2 2)">
        <path fill="#E0E0E0" d="M28.332 93.09l25.116 5.48c3.318.723 6.614-1.49 7.324-4.919l9.47-45.728a.374.374 0 0 0-.278-.443l-36.475-7.957a.364.364 0 0 0-.43.288L23.59 85.54c-.71 3.43 1.425 6.827 4.743 7.551"/>
        <path fill="#FBB03B" d="M23.276 87.052l37.183 8.112 8.31-40.131-37.182-8.112z"/>
        <path fill="#F7931E" d="M22.974 86.575l8.05 1.756 8.23-39.737-8.05-1.757z"/>
        <path fill="#FFF" d="M59.44 57.521c-.135.652.27 1.293.906 1.431a1.176 1.176 0 0 0 1.394-.93c.135-.651-.27-1.292-.905-1.43a1.176 1.176 0 0 0-1.395.929M38.815 56.517a.604.604 0 0 0 .453.715c.317.07.63-.139.697-.464a.603.603 0 0 0-.453-.716.588.588 0 0 0-.697.465M31.193 73.975c-.135.652.27 1.293.905 1.432.635.138 1.26-.278 1.395-.93s-.271-1.292-.906-1.43a1.176 1.176 0 0 0-1.394.928M50.04 75.826a1.006 1.006 0 0 0 .755 1.192.98.98 0 0 0 1.162-.774 1.005 1.005 0 0 0-.755-1.193.98.98 0 0 0-1.162.775M43.466 72.747a1.006 1.006 0 0 0 .755 1.192.98.98 0 0 0 1.162-.774 1.006 1.006 0 0 0-.755-1.193.98.98 0 0 0-1.162.775M47.67 66.307a.961.961 0 0 0 1.385-.015 1.025 1.025 0 0 0-.016-1.423.962.962 0 0 0-1.385.017 1.023 1.023 0 0 0 .016 1.421M41.37 54.983a.771.771 0 0 0 1.084.236.816.816 0 0 0 .23-1.112.77.77 0 0 0-1.084-.236.817.817 0 0 0-.23 1.112M56.2 84.777c-.09.435.18.862.603.954a.784.784 0 0 0 .93-.62.804.804 0 0 0-.604-.954.784.784 0 0 0-.93.62"/>
        <g transform="rotate(12 -209.838 124.791)">
            <mask id="b" fill="#fff">
                <use xlink:href="#a"/>
            </mask>
            <path fill="#E0E0E0" d="M6.986 24.168h2.812c1.275 0 2.387-1.02 2.425-2.341.04-1.369-1.018-2.49-2.328-2.49H6.986c-1.286 0-2.329-1.083-2.329-2.418V7.35c0-1.336 1.043-2.418 2.33-2.418h2.81c1.276 0 2.388-1.02 2.426-2.342C12.263 1.221 11.205.1 9.895.1H6.986C3.128.1 0 3.345 0 7.35v9.57c0 4.004 3.128 7.25 6.986 7.25" mask="url(#b)"/>
        </g>
        <path fill="#E0E0E0" d="M38.932 37.334c1.03-2.04 3.28-3.214 5.568-2.715 1.402.306 2.542 1.182 3.247 2.34 1.682-3.02 5.116-4.724 8.598-3.964 3.909.853 6.535 4.517 6.31 8.505a5.656 5.656 0 0 1 4.411-.81c3.132.72 5.048 3.998 4.378 7.232l-2.969 14.336c-.68 3.282-3.864 5.501-7.036 4.745-3.076-.734-5.024-3.874-4.362-7.07l2.58-12.458c-1.805 1.483-4.215 2.154-6.647 1.624-2.947-.643-5.164-2.884-5.981-5.657-1.178 1.21-2.904 1.806-4.651 1.424a5.038 5.038 0 0 1-3.022-2.004c-.879 1.065-2.282 1.612-3.7 1.303-2.017-.44-3.318-2.446-2.96-4.52.367-2.135 2.429-3.594 4.492-3.178.67.135 1.262.442 1.744.867z"/>
        <g>
            <path fill="#E0E0E0" d="M80.814 98.161l21.392-4.445c2.826-.588 4.641-3.359 4.033-6.158l-8.117-37.332a.311.311 0 0 0-.366-.236l-31.067 6.456a.304.304 0 0 0-.236.361l8.116 37.332c.609 2.8 3.42 4.61 6.245 4.022"/>
            <path fill="#FBB03B" d="M75.02 95.332l31.67-6.582-7.158-32.922-31.67 6.581z"/>
            <path fill="#F7931E" d="M100.11 89.949l6.815-1.417-7.073-32.53-6.815 1.416z"/>
            <path fill="#FFF" d="M73.979 64.77c.118.54.661.886 1.215.77.554-.114.907-.646.79-1.187a1.025 1.025 0 0 0-1.216-.772 1.002 1.002 0 0 0-.79 1.188M92.408 64.043a.41.41 0 0 0 .486.309.4.4 0 0 0 .316-.475.41.41 0 0 0-.486-.309.4.4 0 0 0-.316.475M98.16 78.393c.117.54.66.886 1.215.771.553-.115.906-.647.789-1.188a1.025 1.025 0 0 0-1.215-.772 1.002 1.002 0 0 0-.79 1.189M82.171 79.753a.82.82 0 0 0 .972.618.802.802 0 0 0 .632-.95.82.82 0 0 0-.972-.618.802.802 0 0 0-.632.95M87.909 77.35a.82.82 0 0 0 .972.616.802.802 0 0 0 .631-.95.82.82 0 0 0-.972-.617.802.802 0 0 0-.631.95M85.147 71.923a.825.825 0 0 0 1.053-.472.796.796 0 0 0-.483-1.03.825.825 0 0 0-1.053.473.795.795 0 0 0 .483 1.03M90.22 62.66c.285.182.666.103.85-.176a.592.592 0 0 0-.18-.83.622.622 0 0 0-.85.176.593.593 0 0 0 .18.83M77.249 87.124c.07.325.397.532.729.463a.601.601 0 0 0 .473-.713.615.615 0 0 0-.729-.462.601.601 0 0 0-.473.712"/>
            <g transform="scale(-1 1) rotate(10 -372.118 -595.273)">
                <mask id="d" fill="#fff">
                    <use xlink:href="#c"/>
                </mask>
                <path fill="#E0E0E0" d="M5.936 19.734h2.39c1.082 0 2.027-.833 2.06-1.912a1.975 1.975 0 0 0-1.978-2.034H5.936a1.976 1.976 0 0 1-1.979-1.973V6c0-1.09.886-1.973 1.98-1.973h2.388c1.083 0 2.028-.833 2.06-1.913A1.975 1.975 0 0 0 8.409.081H5.936C2.658.081 0 2.731 0 6v7.815c0 3.269 2.658 5.919 5.936 5.919" mask="url(#d)"/>
            </g>
            <path fill="#E0E0E0" d="M69.447 53.087a4.305 4.305 0 0 1 3.444-3.946 4.417 4.417 0 0 1 3.348.646c.29-2.844 2.404-5.3 5.396-5.921 3.36-.698 6.671 1.154 7.856 4.226a4.96 4.96 0 0 1 3.186-2.12c2.704-.531 5.326 1.275 5.904 3.932l2.562 11.782c.586 2.697-1.156 5.454-3.905 5.972-2.664.503-5.265-1.188-5.836-3.816l-2.226-10.238a6.81 6.81 0 0 1-4.664 3.496 6.945 6.945 0 0 1-6.625-2.2 4.327 4.327 0 0 1-3.165 2.663 4.413 4.413 0 0 1-3.055-.47 3.243 3.243 0 0 1-2.46 2.245c-1.733.36-3.44-.701-3.867-2.381-.44-1.729.68-3.53 2.443-3.925a3.31 3.31 0 0 1 1.664.055z"/>
        </g>
        <circle cx="64" cy="64" r="64" stroke="#F7D6A2" stroke-width="4"/>
    </g>
</svg>
