<svg xmlns="http://www.w3.org/2000/svg" xmlns:xlink="http://www.w3.org/1999/xlink" width="348" height="76" viewBox="0 0 348 76">
    <defs>
        <path id="a" d="M6.166 0h105.988c1.337 0 1.822.14 2.311.4.49.262.873.646 1.134 1.135.262.489.401.974.401 2.31v51.31c0 1.336-.14 1.821-.4 2.31a2.726 2.726 0 0 1-1.135 1.134c-.489.262-.974.401-2.31.401H6.897a3 3 0 0 1-2.195-5.046L22.837 34.5c.832-.892 1.054-1.292 1.21-1.773.155-.482.176-.973.062-1.466-.114-.493-.301-.91-1.054-1.87L3.805 4.852A3 3 0 0 1 6.167 0z"/>
        <path id="c" d="M6.166 0h105.988c1.337 0 1.822.14 2.311.4.49.262.873.646 1.134 1.135.262.489.401.974.401 2.31v51.31c0 1.336-.14 1.821-.4 2.31a2.726 2.726 0 0 1-1.135 1.134c-.489.262-.974.401-2.31.401H6.897a3 3 0 0 1-2.195-5.046L22.837 34.5c.832-.892 1.054-1.292 1.21-1.773.155-.482.176-.973.062-1.466-.114-.493-.301-.91-1.054-1.87L3.805 4.852A3 3 0 0 1 6.167 0z"/>
    </defs>
    <g fill="none" fill-rule="evenodd">
        <g transform="translate(-3 17)">
            <mask id="b" fill="#fff">
                <use xlink:href="#a"/>
            </mask>
            <use fill="#F7D6A2" xlink:href="#a"/>
            <path stroke="#FBB03B" stroke-width="5" d="M15.427-5l28.847 31.1a5 5 0 0 1 0 6.8L15.427 64" mask="url(#b)"/>
        </g>
        <g transform="matrix(-1 0 0 1 351 17)">
            <mask id="d" fill="#fff">
                <use xlink:href="#c"/>
            </mask>
            <use fill="#F7D6A2" xlink:href="#c"/>
            <path stroke="#FBB03B" stroke-width="5" d="M15.427-5l28.847 31.1a5 5 0 0 1 0 6.8L15.427 64" mask="url(#d)"/>
        </g>
        <path fill="#FFEBCD" d="M74.128 0h203.744c1.783 0 2.43.186 3.082.534.652.349 1.163.86 1.512 1.512.348.652.534 1.299.534 3.082v48.744c0 1.783-.186 2.43-.534 3.082a3.635 3.635 0 0 1-1.512 1.512c-.652.348-1.299.534-3.082.534H74.128c-1.783 0-2.43-.186-3.082-.534a3.635 3.635 0 0 1-1.512-1.512c-.348-.652-.534-1.299-.534-3.082V5.128c0-1.783.186-2.43.534-3.082A3.635 3.635 0 0 1 71.046.534C71.698.186 72.345 0 74.128 0z"/>
        <path fill="#FBB03B" d="M69 59l44.36 17-.36-17zM279.36 59L235 76l.36-17z"/>
    </g>
</svg>
