<svg xmlns="http://www.w3.org/2000/svg" width="93" height="47" viewBox="0 0 93 47">
    <g fill="#F2F2F2" fill-rule="evenodd" opacity=".5">
        <path d="M16.575 13.384c-.274-.732-.696-1.309-1.25-1.718-.558-.41-1.261-.633-2.095-.663-.816-.028-1.783.172-2.865.594-.92.361-1.828.821-2.695 1.365a22.011 22.011 0 0 0-4.563 3.81 19.495 19.495 0 0 0-1.641 2.059 11.094 11.094 0 0 0-1.082 1.916c-.261.615-.389 1.156-.384 1.606.005.387.115.653.33.798.243.163.58.155 1.03-.02.41-.16.77-.407 1.07-.735.289-.312.56-.683.805-1.098.243-.406.494-.864.742-1.352.245-.483.532-.986.849-1.486.289-.4.64-.806 1.046-1.213.41-.409.862-.805 1.35-1.18a16.102 16.102 0 0 1 1.537-1.041c.53-.315 1.067-.58 1.594-.785.55-.217 1.03-.308 1.432-.275.391.03.703.158.954.381.256.232.452.552.583.958.133.42.207.92.215 1.482.005.669-.103 1.439-.323 2.29a17.889 17.889 0 0 1-.959 2.69 24.112 24.112 0 0 1-3.46 5.533c-.708.85-1.48 1.638-2.294 2.342a12.742 12.742 0 0 1-1.959 1.4c.261-.502.532-1.036.8-1.59a122.045 122.045 0 0 0 2.164-4.71c.338-.775.65-1.502.939-2.175.289-.676.547-1.289.767-1.823.223-.538.402-.976.54-1.3.143-.321.255-.649.337-.974.085-.333.126-.638.123-.91-.005-.371-.107-.664-.302-.87-.222-.233-.568-.261-1.025-.083a2.614 2.614 0 0 0-.397.218 3.366 3.366 0 0 0-.578.504c-.207.218-.432.5-.67.838-.24.34-.483.765-.723 1.266L1.522 32.288c-.133.264-.24.542-.325.819-.084.29-.125.574-.125.851.005.391.133.686.376.874a.78.78 0 0 0 .496.168c.15 0 .314-.036.493-.104a21.056 21.056 0 0 0 4.3-2.275 24.925 24.925 0 0 0 3.61-3.01 25.542 25.542 0 0 0 4.964-7.091c.56-1.201.99-2.386 1.274-3.52.284-1.135.425-2.185.414-3.118-.012-.94-.156-1.781-.424-2.498M30.916 26.87c-1.112 2.02-1.934 3.463-2.388 4.183-.309-.086-.587-.235-.658-.36-.034-.057.002-.404.408-1.006.566-.847 1.464-1.803 2.638-2.817m-6.48-8.704c.004.362-.072.756-.23 1.173-.164.432-.39.852-.676 1.246a5.836 5.836 0 0 1-.985 1.06 3.355 3.355 0 0 1-1.097.63c-.263.087-.38.066-.419.056-.104-.034-.148-.081-.17-.118a.689.689 0 0 1-.113-.292c-.026-.153-.04-.3-.043-.432-.006-.36.071-.748.23-1.152a5.607 5.607 0 0 1 1.646-2.246c.356-.29.734-.5 1.114-.623.191-.065.314-.081.385-.081a.35.35 0 0 1 .074.008c.097.026.135.062.153.086.049.065.08.143.095.242.023.151.035.3.035.443m10.974-2.262c-.257.36-.52.701-.788 1.014a8.88 8.88 0 0 1-.77.805c-.266.243-.437.334-.531.362-.27.089-.383.076-.411.068-.059-.015-.1-.034-.12-.062a.47.47 0 0 1-.08-.193 2.093 2.093 0 0 1-.032-.347 3.322 3.322 0 0 1 .23-1.199 5.31 5.31 0 0 1 .675-1.23c.284-.385.618-.734.99-1.037a3.5 3.5 0 0 1 1.12-.625c.108-.037.235-.06.38-.07.039-.003.077-.006.11-.006.102 0 .197.01.286.032.097.023.174.06.235.114.007.008.028.026.03.1 0 .004-.012.096-.142.37a9.68 9.68 0 0 1-.488.86c-.206.333-.441.682-.694 1.044m14.383-3.234c-.265.31-.523.581-.768.805-.268.245-.436.334-.53.365-.274.089-.386.073-.412.065-.06-.013-.102-.033-.12-.062a.427.427 0 0 1-.081-.193 2.39 2.39 0 0 1-.03-.344c-.008-.38.068-.782.229-1.201.16-.43.39-.845.67-1.228.29-.388.62-.735.993-1.037a3.56 3.56 0 0 1 1.12-.628c.108-.036.235-.057.383-.07.036-.003.072-.003.11-.003.1 0 .194.01.28.031.098.021.174.06.238.112.008.008.03.03.033.102 0 .005-.013.094-.145.368-.12.245-.281.534-.488.862-.206.331-.439.683-.696 1.043-.255.36-.518.7-.786 1.013m39.15-10.345a1.265 1.265 0 0 0-1.59-.853L66.39 8.287c-.053.013-.135.031-.237.063l2.659-5.968.005-.018c.066-.165.1-.334.097-.503a.974.974 0 0 0-.23-.626c-.112-.133-.375-.333-.847-.18-.117.04-.235.081-.35.128-.135.055-.273.13-.426.235a5.594 5.594 0 0 0-.495.388c-.188.162-.413.38-.676.651l-5.521 6.724 2.22-4.975c.058-.138.084-.287.081-.443a.78.78 0 0 0-.604-.771c-.273-.076-.595-.055-.955.062-.321.104-.65.297-.982.566a3.078 3.078 0 0 0-.817 1.07l-.012.032c-.258.68-.49 1.282-.697 1.793a50.27 50.27 0 0 1-.85 1.99c-.11.074-.23.157-.362.251-.418.295-.982.725-1.676 1.277-.398.318-.863.698-1.388 1.136l2.238-4.615c.091-.188.135-.37.132-.545-.002-.383-.227-.677-.617-.807-.309-.105-.697-.079-1.19.083-.185.06-.372.148-.553.26a5.81 5.81 0 0 0-.697.508 3.184 3.184 0 0 0-.482-.145l-.018-.003a4.447 4.447 0 0 0-.854-.05c-.342.011-.738.09-1.177.233-.74.242-1.505.638-2.27 1.18a11.205 11.205 0 0 0-2.082 1.915 10.276 10.276 0 0 0-1.541 2.453 4.97 4.97 0 0 1-.184.367c-.14.269-.288.545-.36.847l.036.01c-2.544.907-4.445 2.038-5.79 3.047l2.473-5.108c.094-.187.138-.37.135-.542-.005-.383-.23-.677-.615-.81-.309-.105-.699-.076-1.194.083-.184.063-.37.149-.554.26a5.739 5.739 0 0 0-.459.319c-.079.065-.16.127-.235.19a3.273 3.273 0 0 0-.482-.144l-.018-.005a4.277 4.277 0 0 0-.854-.047c-.342.01-.738.089-1.177.23-.74.245-1.505.64-2.27 1.18a11.22 11.22 0 0 0-2.907 3.034 25.427 25.427 0 0 1-1.245 1.521c-.24.269-.477.522-.712.748-.05.047-.114.112-.188.185-.19.188-.62.615-.76.701a.078.078 0 0 0-.021.006c.071-.232.13-.456.17-.668.077-.37.11-.695.108-.969-.008-.579-.163-1.037-.464-1.366a2.083 2.083 0 0 0-1.057-.622 3.477 3.477 0 0 0-1.26-.065c-.424.052-.83.14-1.2.26a9.058 9.058 0 0 0-2.303 1.12 10.92 10.92 0 0 0-1.817 1.556 11.64 11.64 0 0 0-1.362 1.79 13.938 13.938 0 0 0-.932 1.81 10.224 10.224 0 0 0-.546 1.664c-.122.535-.176.972-.171 1.34.008.576.15 1.042.426 1.381.263.326.59.56.973.69.357.128.74.18 1.132.154.375-.023.707-.08.998-.174a10.554 10.554 0 0 0 1.995-.891 11.93 11.93 0 0 0 1.733-1.223 11.772 11.772 0 0 0 2.441-2.897c.169.028.337.041.506.036.27-.008.91-.148 1.199-.279.5-.227.855-.62 1.12-.97.04.217.1.418.176.605.158.386.38.704.656.944a2.04 2.04 0 0 0 1.015.461c.375.06.781.018 1.207-.12.225-.073.487-.19.776-.346.286-.154.594-.355.918-.592.07-.052.138-.102.207-.156-.309.508-.615.953-.86 1.162-.17.148-.543.406-1.015.735-1.738 1.209-4.968 3.458-6.657 5.978-1.472 2.2-.835 3.695-.322 4.388C26.413 33.513 27.898 34 28.95 34c.268 0 .497-.031.684-.096.627-.214.842-.287 4.34-6.708 1.298-2.382 3.335-6.119 4.085-7.508.306-.383 2.283-2.713 6.531-4.422.039.17.087.33.146.477.166.406.51.703.763.917l.03.026c.286.248.628.401 1.013.464.375.057.784.018 1.21-.123.224-.073.485-.19.773-.346.145-.076.298-.167.451-.269a41.16 41.16 0 0 0-1.275 1.903l-.059.099c-.475.677-.91 1.326-1.296 1.939a29.21 29.21 0 0 0-1.294 2.249c-.115.226-.24.45-.36.664-.242.438-.472.852-.61 1.254-.209.607-.305 1.107-.3 1.532.01.607.293.943.533 1.118.204.15.49.23.804.23.211 0 .436-.037.655-.108.304-.101.582-.234.82-.398.24-.165.476-.4.696-.691.21-.279.42-.633.628-1.055.201-.402.426-.918.668-1.528l3.322-6.595-.018.005.45-.894a20.354 20.354 0 0 1 1.6-1.55 37.298 37.298 0 0 1 2.091-1.702 3.623 3.623 0 0 0-.018.362c.01.693.46.876.651.923.296.075.64.05 1.02-.076 1.034-.339 2.139-1.107 3.29-2.283.482-.495.99-1.063 1.52-1.701l-1.148 2.51a62.51 62.51 0 0 0-1.472 2.253c-.4.644-.725 1.222-.965 1.72-.25.514-.426.975-.523 1.374-.102.403-.15.802-.145 1.18.01.649.306.967.556 1.118.337.203.75.23 1.232.073 1.016-.334 1.886-1.342 2.67-3.09.007-.019.066-.154.175-.407a61.316 61.316 0 0 0 .962-2.364c.197-.51.403-1.058.61-1.623l.306-.837c1.161-.938 2.072-1.173 2.177-1.199l.079-.013L88.11 3.948a1.301 1.301 0 0 0 .832-1.623M91.113 3c-.475 0-.917-.374-1.064-.954-.18-.717.147-1.473.736-1.696l.773-.29c.586-.22 1.213.18 1.392.896.182.713-.147 1.472-.733 1.693l-.773.292a.971.971 0 0 1-.33.059"/>
        <path d="M51.488 29.54c1.604-2.025 2.596-2.83 3.189-3.126-.067.13-.16.269-.279.412a5.66 5.66 0 0 1-.458.5c-.17.171-.359.343-.56.507l-.013.012a50.19 50.19 0 0 1-.956.843 11.09 11.09 0 0 0-1.116 1.109c-.026.03-.052.059-.075.09.088-.116.178-.23.268-.346m13.915-5.473c.002.333-.07.696-.22 1.083a4.94 4.94 0 0 1-.641 1.15 5.566 5.566 0 0 1-.938.981 3.235 3.235 0 0 1-1.037.579c-.252.08-.36.059-.389.051-.093-.028-.126-.072-.15-.1a.66.66 0 0 1-.103-.264 2.502 2.502 0 0 1-.04-.394c-.006-.333.069-.692.218-1.063.158-.39.371-.766.637-1.122.268-.356.58-.676.928-.952a3.32 3.32 0 0 1 1.054-.577 1.22 1.22 0 0 1 .361-.071c.036 0 .057.002.067.005.085.02.119.051.134.074.041.054.07.126.085.213.02.138.031.276.034.407m11.149-3.542c.005.333-.073.696-.22 1.08a5.042 5.042 0 0 1-.641 1.153c-.274.366-.59.697-.941.978a3.144 3.144 0 0 1-1.037.582c-.252.08-.36.059-.386.051a.277.277 0 0 1-.152-.1.7.7 0 0 1-.103-.264 2.454 2.454 0 0 1-.04-.394c-.004-.333.07-.689.217-1.06.158-.392.372-.769.637-1.125.268-.356.58-.676.93-.952.338-.27.692-.461 1.055-.577.18-.059.296-.071.36-.071.034 0 .055.002.065.005.085.02.119.05.134.074.042.054.07.125.085.213.021.138.034.276.037.407m14.077-4.341c-.155-.092-.413-.18-.776-.064-.098.03-.204.08-.325.146a1.37 1.37 0 0 0-.35.274c-.24.253-.514.543-.818.855-.304.313-.629.633-.961.953-.335.323-.678.64-1.016.947-.338.308-.665.587-.974.838-.307.248-.596.463-.859.638a3.26 3.26 0 0 1-.415.243c.016-.087.044-.197.09-.33a6.35 6.35 0 0 1 .26-.666c.212-.482.465-1.048.761-1.703.292-.651.611-1.353.946-2.078l1.037-2.261c.35-.766.698-1.516 1.036-2.233a141.513 141.513 0 0 1 1.704-3.542 7.44 7.44 0 0 0 .29-.615c.094-.23.14-.435.138-.627-.01-.674-.462-.86-.653-.912a1.751 1.751 0 0 0-.974.048c-.317.1-.632.272-.933.508-.32.248-.572.578-.753.983l-3.877 8.623-.508 1.13c-.118.15-.244.31-.386.476-.201.246-.42.497-.65.748-.227.248-.456.481-.68.691-.222.208-.439.39-.647.54a1.8 1.8 0 0 1-.485.272c.06-.202.113-.397.152-.584.072-.348.106-.642.103-.904-.008-.543-.162-.973-.45-1.283a2.038 2.038 0 0 0-1.024-.584 3.473 3.473 0 0 0-1.207-.061c-.41.048-.796.13-1.152.246a8.698 8.698 0 0 0-2.201 1.042c-.65.43-1.238.92-1.74 1.447-.5.528-.939 1.086-1.302 1.667-.26.415-.49.83-.688 1.235a9.641 9.641 0 0 1-.505.51c-.222.207-.439.389-.648.54a1.916 1.916 0 0 1-.484.271c.06-.205.11-.397.15-.584.074-.348.105-.642.1-.901-.008-.546-.157-.976-.446-1.286a2.049 2.049 0 0 0-1.023-.584 3.366 3.366 0 0 0-1.21-.059 6.083 6.083 0 0 0-1.149.241 8.707 8.707 0 0 0-2.201 1.045c-.65.43-1.238.917-1.74 1.447-.503.528-.941 1.086-1.302 1.665-.361.574-.66 1.14-.892 1.682-.095.226-.183.449-.26.669-.428.358-.828.694-1.196.999a44.348 44.348 0 0 1-1.851 1.47c-.529.394-1 .714-1.395.953a6.18 6.18 0 0 1-.76.389c.056-.082.131-.164.214-.251.085-.087.18-.167.273-.23.487-.326.99-.695 1.498-1.102.518-.412.99-.85 1.41-1.306.428-.466.78-.96 1.051-1.468a3.385 3.385 0 0 0 .415-1.641c-.005-.407-.131-.73-.373-.966a1.61 1.61 0 0 0-.823-.415 3.076 3.076 0 0 0-.974-.018 5.56 5.56 0 0 0-.967.216 6.316 6.316 0 0 0-1.5.709 10.8 10.8 0 0 0-1.58 1.245c.283-.607.57-1.232.856-1.86.34-.766.696-1.536 1.051-2.297.348-.74.702-1.462 1.057-2.139.13-.212.243-.435.335-.658.111-.264.165-.51.163-.732a.827.827 0 0 0-.457-.75c-.262-.139-.626-.124-1.141.038a2.852 2.852 0 0 0-.552.25c-.17.103-.335.221-.487.352a3.365 3.365 0 0 0-.408.404 1.86 1.86 0 0 0-.299.456l-4.05 8.677-.512 1.11c-.204.442-.423.916-.652 1.423-.232.505-.467 1.022-.699 1.547-.232.52-.448 1.02-.642 1.485-.196.461-.358.879-.487 1.237-.137.38-.211.648-.235.846-.01.061-.015.117-.015.171l.003.09c.007.527.28.712.44.77a.822.822 0 0 0 .294.052c.152 0 .328-.033.534-.1.624-.197 1.284-.76 2.016-1.726l.013-.018c.224-.333.453-.684.688-1.042.232-.361.474-.733.73-1.12.247-.376.523-.776.811-1.18.072-.103.15-.205.225-.313-.14.21-.266.423-.382.643a3.4 3.4 0 0 0-.387 1.614c.008.527.18.914.51 1.152.426.302 1.05.315 1.913.041.745-.236 1.48-.563 2.181-.973.694-.4 1.374-.856 2.029-1.345.65-.489 1.291-1.006 1.905-1.539l.005-.008c.057.103.116.2.19.285.253.304.568.525.936.65a2.79 2.79 0 0 0 1.093.141 3.87 3.87 0 0 0 .957-.164 9.993 9.993 0 0 0 1.907-.827 11.206 11.206 0 0 0 1.658-1.14c.508-.422.974-.886 1.387-1.38.345-.415.66-.85.94-1.301.16.028.318.038.472.033.25-.01.513-.056.776-.14a3.16 3.16 0 0 0 .642-.29c.06.35.186.645.379.876.255.307.57.525.938.65.346.115.712.167 1.09.141.359-.02.681-.074.957-.164a9.993 9.993 0 0 0 1.907-.827c.59-.333 1.15-.717 1.658-1.14.508-.422.974-.886 1.387-1.38.345-.415.66-.85.94-1.301.16.025.318.038.472.033a3.06 3.06 0 0 0 .779-.138c.278-.092.56-.23.838-.418-.018.164-.026.32-.024.474.006.264.05.51.127.73.092.261.252.469.471.615.212.143.482.22.802.228.291.01.632-.05 1.039-.18a7.073 7.073 0 0 0 1.72-.837 15.376 15.376 0 0 0 1.719-1.304 26.457 26.457 0 0 0 1.711-1.631 54.896 54.896 0 0 0 1.678-1.816c.335-.318.565-.607.707-.886.152-.3.224-.556.219-.784-.005-.422-.235-.627-.371-.71M45.776 28.649a2.305 2.305 0 0 0-.571-.644 3.902 3.902 0 0 0-.855-.501c-.32-.14-.687-.274-1.087-.398l-3.05-.96a10.35 10.35 0 0 1-.734-.245 3.012 3.012 0 0 1-.499-.238.777.777 0 0 1-.244-.213.374.374 0 0 1-.062-.23c-.003-.17.07-.378.218-.619.166-.273.395-.557.676-.846.29-.293.631-.595 1.016-.891a14.77 14.77 0 0 1 2.448-1.535c.268-.13.525-.243.761-.334a.34.34 0 0 0 .162-.124l1.634-2.346a.334.334 0 0 0 .01-.36.353.353 0 0 0-.327-.164 6.227 6.227 0 0 0-.71.091c-.205.04-.42.099-.641.167-.577.18-1.19.439-1.83.768-.631.33-1.265.709-1.89 1.134-.618.426-1.22.895-1.787 1.396a14.529 14.529 0 0 0-1.513 1.542 7.838 7.838 0 0 0-1.05 1.583c-.272.55-.405 1.08-.397 1.578.008.565.205 1.062.59 1.47.356.38.886.724 1.585 1.025.133.056.452.17.98.35.522.18 1.297.395 2.305.638.512.119.884.27 1.107.443.237.187.268.344.268.446.005.286-.094.592-.289.91a4.55 4.55 0 0 1-.878 1c-.38.326-.824.63-1.333.904-.476.258-1.799.699-2.508.92a.337.337 0 0 0-.075.035l-27.33 8.23a1.205 1.205 0 0 0-.82 1.515c.166.52.655.854 1.187.854.122 0 .245-.018.37-.053L40.645 35.9c.135-.04.258-.101.364-.177 1.053-.426 2.03-.98 2.524-1.467.683-.679 1.554-2.008 1.917-2.707.375-.72.557-1.409.549-2.044a1.756 1.756 0 0 0-.224-.856M5.181 47c-.506 0-.972-.34-1.128-.87-.193-.653.156-1.342.778-1.546l1.637-.529c.625-.201 1.286.165 1.479.816.193.653-.156 1.344-.778 1.543l-1.64.532a1.166 1.166 0 0 1-.348.054"/>
    </g>
</svg>
